<?xml version="1.0" encoding="utf-8"?>
<!-- Generator: Adobe Illustrator 19.0.0, SVG Export Plug-In . SVG Version: 6.00 Build 0)  -->
<svg version="1.1" id="Layer_1" xmlns="http://www.w3.org/2000/svg" xmlns:xlink="http://www.w3.org/1999/xlink" x="0px" y="0px"
	 viewBox="199 389 16 16" style="enable-background:new 199 389 16 16;" xml:space="preserve">
<style type="text/css">
	.st0{fill:#7F7F7F;}
</style>
<path class="st0" d="M207,389.5c-4.1,0-7.5,3.4-7.5,7.5c0,4.1,3.4,7.5,7.5,7.5c4.1,0,7.5-3.4,7.5-7.5
	C214.5,392.9,211.1,389.5,207,389.5z M204.7,401.2h-1.4v-6.6h1.4V401.2z M204,393.7c-0.5,0-0.9-0.4-0.9-0.9c0-0.5,0.4-0.9,0.9-0.9
	s0.9,0.4,0.9,0.9C204.9,393.3,204.5,393.7,204,393.7z M211.2,401.2h-1.4v-3.7c0-0.9-0.3-1.4-1.1-1.4c-0.8,0-1.7,0.7-1.7,1.4v3.7
	h-1.4v-6.6h1.4v0.9c0.5-0.5,1.2-0.9,2.1-0.9c1.2,0,2.1,0.7,2.1,2.4L211.2,401.2L211.2,401.2z"/>
</svg>
